<?xml version="1.0" encoding="iso-8859-1"?>
<!-- Generator: Adobe Illustrator 25.0.0, SVG Export Plug-In . SVG Version: 6.00 Build 0)  -->
<svg version="1.1" baseProfile="basic" id="Layer_1"
	 xmlns="http://www.w3.org/2000/svg" xmlns:xlink="http://www.w3.org/1999/xlink" x="0px" y="0px" viewBox="0 0 64 64"
	 xml:space="preserve">
<path d="M15.003,17.111h33.994l-1.79,32.222C47.029,52.511,44.398,55,41.216,55H22.784c-3.183,0-5.813-2.489-5.991-5.667
	L15.003,17.111z M24.81,46.835c0.966-0.034,1.722-0.844,1.688-1.81l-0.697-20.086c-0.034-0.966-0.846-1.711-1.81-1.688
	c-0.966,0.034-1.722,0.844-1.688,1.81l0.697,20.086c0.033,0.945,0.81,1.689,1.748,1.689C24.769,46.836,24.79,46.835,24.81,46.835z
	 M33.75,45V25c0-0.966-0.783-1.75-1.75-1.75s-1.75,0.784-1.75,1.75v20c0,0.966,0.783,1.75,1.75,1.75S33.75,45.966,33.75,45z
	 M40.999,45.146l0.697-20.086c0.033-0.966-0.723-1.776-1.688-1.81c-0.968-0.027-1.776,0.723-1.81,1.688l-0.697,20.086
	c-0.033,0.966,0.723,1.776,1.688,1.81c0.021,0,0.041,0.001,0.062,0.001C40.19,46.836,40.966,46.092,40.999,45.146z"/>
<path d="M51,15c1.104,0,2,0.896,2,2s-0.896,2-2,2H13c-1.104,0-2-0.896-2-2s0.896-2,2-2H51z"/>
<path d="M36,7c2.757,0,5,2.243,5,5v5h-4v-5c0-0.551-0.448-1-1-1h-8c-0.552,0-1,0.449-1,1v5h-4v-5c0-2.757,2.243-5,5-5H36z"/>
</svg>