<svg y="0px" x="0px" viewBox="8.75 9 82.5 82.25" xmlns="http://www.w3.org/2000/svg" style="max-height: 500px" width="82.5" height="82.25"><title>Artboard 15</title><g data-name="Emojis, bored, emot, emoticon, expression, emoji"><path d="M50,10.91A39.09,39.09,0,1,0,89.09,50,39.14,39.14,0,0,0,50,10.91Zm0,74.18A35.09,35.09,0,1,1,85.09,50,35.13,35.13,0,0,1,50,85.09Z"/><path d="M43.82,44.32a9.32,9.32,0,1,0-18.64,0,2,2,0,0,0,4,0,5.32,5.32,0,1,1,10.64,0,2,2,0,0,0,4,0Z"/><path d="M65.5,35a9.33,9.33,0,0,0-9.32,9.32,2,2,0,0,0,4,0,5.32,5.32,0,1,1,10.64,0,2,2,0,0,0,4,0A9.33,9.33,0,0,0,65.5,35Z"/><path d="M50,50c-4.77,0-8.5,6.15-8.5,14S45.23,78,50,78s8.5-6.15,8.5-14S54.77,50,50,50Zm0,24c-2.12,0-4.5-4.28-4.5-10S47.88,54,50,54s4.5,4.28,4.5,10S52.12,74,50,74Z"/></g><text font-family="'Helvetica Neue', Helvetica, Arial-Unicode, Arial, Sans-serif" font-weight="bold" font-size="5px" fill="#000000" y="115" x="0">Created by Manglayang studio</text><text font-family="'Helvetica Neue', Helvetica, Arial-Unicode, Arial, Sans-serif" font-weight="bold" font-size="5px" fill="#000000" y="120" x="0">from the Noun Project</text></svg>